<?xml version="1.0" encoding="UTF-8"?>
<svg xmlns="http://www.w3.org/2000/svg" version="1.1" xmlns:xlink="http://www.w3.org/1999/xlink" viewBox="0 0 1080 1080">
  <!-- Generator: Adobe Illustrator 29.5.0, SVG Export Plug-In . SVG Version: 2.1.0 Build 137)  -->
  <defs>
    <style>
      .st0 {
        isolation: isolate;
      }

      .st1 {
        fill: #666;
      }

      .st2 {
        fill: url(#linear-gradient);
        mix-blend-mode: overlay;
        opacity: .25;
      }

      .st3 {
        fill: #00a99d;
      }
    </style>
    <linearGradient id="linear-gradient" x1="226.11" y1="910.86" x2="440.47" y2="65.85" gradientUnits="userSpaceOnUse">
      <stop offset="0" stop-color="#fff"/>
      <stop offset=".09" stop-color="#f7f7f7"/>
      <stop offset=".22" stop-color="#e4e4e4"/>
      <stop offset=".37" stop-color="#c4c4c4"/>
      <stop offset=".54" stop-color="#979797"/>
      <stop offset=".73" stop-color="#5e5e5e"/>
      <stop offset=".93" stop-color="#1a1a1a"/>
      <stop offset="1" stop-color="#000"/>
    </linearGradient>
  </defs>
  <g class="st0">
    <g id="_Шар_1" data-name="Шар_1">
      <g>
        <g>
          <path class="st1" d="M304.42,797.46l-40.5,94.17h-23.36l-40.5-94.17h19.97l32.58,76.47,32.4-76.47h19.4Z"/>
          <path class="st1" d="M405,851.89h-77.23c2.64,14.69,15.07,25.05,29.76,25.05,13.19,0,21.28-5.27,25.99-13.37h18.46c-6.03,17.52-23.73,29.94-44.45,29.94-28.06,0-48.4-20.72-48.4-48.97s20.34-48.97,48.22-48.97c30.89,0,50.1,22.04,47.65,56.32ZM327.97,836.26h57.82c-1.51-15.26-13.37-24.86-28.82-24.86s-26.56,10.36-29,24.86Z"/>
          <path class="st1" d="M515.38,839.46v52.17h-17.89v-51.8c0-17.14-11.49-27.12-25.8-27.12-16.57,0-26.93,13.19-26.93,28.63v50.29h-17.89v-94.17h16.95v15.07c6.78-10.17,18.27-16.95,31.08-16.95,22.41,0,40.5,14.13,40.5,43.89Z"/>
          <path class="st1" d="M565.3,814.41v49.72c0,7.53,2.83,12.43,12.99,12.43,4.15,0,7.53-.19,11.49-1.13v16.39c-2.26.75-7.16,1.69-12.43,1.69-20.53,0-29.95-10.17-29.95-29.38v-49.72h-18.84v-16.95h18.84v-24.49h17.89v24.49h26.37v16.95h-26.37Z"/>
          <path class="st1" d="M696.21,797.46v94.17h-17.89v-14.13c-7.72,9.98-19.21,16.01-31.83,16.01-25.05,0-44.45-20.34-44.45-48.97s19.4-48.97,44.45-48.97c13.19,0,24.86,6.59,32.77,17.14v-15.26h16.95ZM678.88,844.55c0-18.84-12.43-32.4-29.38-32.4s-29,13.56-29,32.4,12.24,32.39,29,32.39,29.38-13.56,29.38-32.39Z"/>
          <path class="st1" d="M814.88,839.46v52.17h-17.89v-51.8c0-17.14-11.49-27.12-25.8-27.12-16.57,0-26.93,13.19-26.93,28.63v50.29h-17.89v-94.17h16.95v15.07c6.78-10.17,18.27-16.95,31.08-16.95,22.41,0,40.5,14.13,40.5,43.89Z"/>
          <path class="st1" d="M928.83,797.46v94.17h-17.89v-14.13c-7.72,9.98-19.21,16.01-31.83,16.01-25.05,0-44.45-20.34-44.45-48.97s19.4-48.97,44.45-48.97c13.19,0,24.86,6.59,32.77,17.14v-15.26h16.95ZM911.5,844.55c0-18.84-12.43-32.4-29.38-32.4s-29,13.56-29,32.4,12.24,32.39,29,32.39,29.38-13.56,29.38-32.39Z"/>
          <path class="st1" d="M948.24,861.87h17.89c3.39,11.11,12.43,15.82,26.74,15.82,13.57,0,22.61-4.9,22.61-11.87,0-6.59-3.96-10.73-19.97-13.37l-10.73-1.88c-23.35-4.15-33.9-13.56-33.9-27.31,0-16.76,16.01-27.69,39.55-27.69,20.91,0,37.48,10.17,41.62,28.07h-19.02c-3.2-7.91-13.19-11.87-22.79-11.87-13,0-21.28,4.15-21.28,10.92,0,6.03,5.46,9.8,18.27,11.87l10.92,1.89c26.56,4.52,35.03,14.5,35.03,29.38,0,16.39-15.44,27.68-41.06,27.68-22.98,0-41.25-11.49-43.88-31.64Z"/>
        </g>
        <path class="st2" d="M506.97,210.46l-46.26,223.12c-.15.71-.47,1.36-.95,1.91l-279.56,318.91c-2.83,3.23-8.1.61-7.24-3.59l82.02-401.27c.24-1.17.97-2.19,2.01-2.78l243.81-140.77c3.13-1.81,6.92.93,6.19,4.47Z"/>
        <path class="st3" d="M93.13,881.67l-1.52-640.98c0-2.1,1.69-3.8,3.79-3.8h23.97c2.11,0,3.82,1.71,3.83,3.82l1.15,486.11,83.87-411.63c.22-1.07.89-2,1.84-2.55l276.26-159.49c7.54-4.36,23.35,22.99,15.79,27.36-66.35,38.32-265.43,153.24-265.43,153.24l-112.28,551.04c-1.51,7.42-31.25,4.99-31.27-3.12Z"/>
        <g>
          <path class="st3" d="M255.44,696.74h-39.49l20.8-148.46h39.49l-20.8,148.46ZM266.13,480.57c6.14,0,10.99,1.89,14.56,5.64,2.97,3.77,4.45,8.22,4.45,13.36,0,3.75-.8,7.48-2.37,11.13-1.59,3.67-3.85,6.89-6.82,9.65-4.96,3.77-10.39,5.64-16.33,5.64-6.34,0-11.19-1.98-14.56-5.94-3.17-3.37-4.75-7.81-4.75-13.35,0-3.58.84-7.18,2.53-10.84,1.68-3.67,4.01-6.78,6.98-9.35,4.55-3.96,9.98-5.94,16.32-5.94Z"/>
          <path class="st3" d="M321.08,475.23l39.78-2.37-19.59,138.38,22.56-13.96,38.31-48.99h24.35l-46.03,54.93,34.74,93.53h-45.14l-23.46-69.48-8.32,4.75-8.91,64.73h-39.49l31.19-221.51Z"/>
          <path class="st3" d="M498.34,571.14l-10.4,73.34c-.98,6.33-1.48,12.58-1.48,18.71s.84,9.99,2.53,12.17c1.68,2.18,4.49,3.27,8.46,3.27s7.37-.34,10.24-1.04c2.87-.7,4.7-1.24,5.5-1.63l-.3,16.93c0,.2-1.19.88-3.57,2.08-2.37,1.18-5.84,2.32-10.39,3.41-4.55,1.08-10.19,1.63-16.92,1.63-12.08,0-21.04-2.53-26.88-7.58-5.83-5.05-8.76-13.31-8.76-24.79,0-3.95.3-8.32.89-13.06l11.58-83.43h-14.26l2.67-17.82,15.14-3.85,26.13-50.48h19.9l-6.84,49.3h32.67l-3.27,22.86h-32.66Z"/>
          <path class="st3" d="M671.73,655.61c-6.73,14.16-16.28,25.09-28.65,32.81-12.38,7.72-26.68,11.58-42.9,11.58-18.41,0-32.92-5.29-43.5-15.89-10.59-10.58-15.89-25.69-15.89-45.28s3.21-35.28,9.65-49.43c6.43-14.16,15.74-25.09,27.91-32.82,12.18-7.72,26.77-11.57,43.8-11.57,18.61,0,33.21,5.3,43.8,15.88,10.59,10.6,15.89,25.69,15.89,45.28s-3.37,35.3-10.1,49.44ZM591.27,585.83c-6.34,13.96-9.5,35.2-9.5,63.7,0,20.59,7.52,30.88,22.56,30.88,11.67,0,20.68-7.02,27.02-21.08,6.33-14.06,9.5-35.33,9.5-63.84,0-10.09-1.78-17.71-5.35-22.86-3.56-5.15-9.31-7.72-17.22-7.72-11.68,0-20.7,6.98-27.02,20.93Z"/>
          <path class="st3" d="M785.76,574.41c-5.54-1.19-10.49-1.79-14.84-1.79-8.32,0-15.04,5.74-20.19,17.23l-15.15,106.89h-39.49l20.8-148.46h27.91l3.27,24.94h.88c0-.99,1.09-3.87,3.27-8.61,2.18-4.75,5.39-9.21,9.65-13.36,4.25-4.15,9.65-6.23,16.18-6.23,4.16,0,8.96.6,14.4,1.78,5.44,1.18,9.06,1.98,10.84,2.37l-6.54,27.61c-1.78-.39-5.44-1.18-10.99-2.36Z"/>
          <path class="st3" d="M840.39,696.74h-39.49l20.8-148.46h39.49l-20.8,148.46ZM851.08,480.57c6.14,0,10.99,1.89,14.56,5.64,2.97,3.77,4.45,8.22,4.45,13.36,0,3.75-.8,7.48-2.37,11.13-1.59,3.67-3.85,6.89-6.82,9.65-4.96,3.77-10.39,5.64-16.33,5.64-6.34,0-11.19-1.98-14.56-5.94-3.17-3.37-4.75-7.81-4.75-13.35,0-3.58.84-7.18,2.53-10.84,1.68-3.67,4.01-6.78,6.98-9.35,4.55-3.96,9.98-5.94,16.32-5.94Z"/>
          <path class="st3" d="M971.03,696.74l-4.75-13.06h-.3c0,.6-1.34,2.27-4.01,5.05-2.67,2.77-6.94,5.35-12.77,7.72-5.84,2.37-13.22,3.57-22.12,3.57-15.65,0-28.22-5.49-37.71-16.49-9.5-10.98-14.26-25.88-14.26-44.68,0-17.61,3.21-33.55,9.65-47.81,6.43-14.26,15.48-25.48,27.17-33.69,11.68-8.22,24.95-12.32,39.79-12.32,8.12,0,14.6.88,19.45,2.67,4.85,1.78,8.32,3.71,10.39,5.79,2.09,2.08,3.13,3.31,3.13,3.71h1.18l7.13-8.9h29.09l-20.78,148.46h-30.28ZM956.63,672.25c4.45-3.07,7.56-5.99,9.35-8.76l12.17-84.04c-3.96-7.91-10.99-11.87-21.08-11.87-12.67,0-22.56,6.44-29.7,19.3-7.12,12.87-10.68,32.17-10.68,57.9,0,21.38,7.72,32.07,23.16,32.07,6.73,0,12.32-1.54,16.78-4.61Z"/>
        </g>
        <polygon class="st3" points="213.63 727.37 210.48 749.54 1030.04 749.54 1033.18 727.37 213.63 727.37"/>
      </g>
    </g>
  </g>
</svg>